<svg width="12" height="12" viewBox="0 0 12 12" fill="none" xmlns="http://www.w3.org/2000/svg">
<path d="M5.99996 11.8333C5.31052 11.8333 4.62783 11.6975 3.99087 11.4337C3.35391 11.1699 2.77516 10.7832 2.28765 10.2956C1.80014 9.80814 1.41343 9.22938 1.14959 8.59242C0.885755 7.95546 0.749959 7.27277 0.749959 6.58333C0.749959 5.89389 0.885755 5.21121 1.14959 4.57425C1.41343 3.93729 1.80014 3.35853 2.28765 2.87102C2.77516 2.38352 3.35391 1.9968 3.99087 1.73297C4.62783 1.46913 5.31052 1.33333 5.99996 1.33333C7.39235 1.33333 8.7277 1.88646 9.71227 2.87102C10.6968 3.85559 11.25 5.19095 11.25 6.58333C11.25 7.97572 10.6968 9.31108 9.71227 10.2956C8.7277 11.2802 7.39235 11.8333 5.99996 11.8333ZM6.58329 6.58333V3.66667H5.41663V7.75H8.33329V6.58333H6.58329ZM0.019043 2.6645L2.08113 0.602417L2.90654 1.42725L0.843293 3.48992L0.019043 2.6645ZM9.91821 0.602417L11.9809 2.6645L11.156 3.48992L9.09338 1.42725L9.91879 0.602417H9.91821Z" fill="#BF080A"/>
</svg>
