<svg width="22" height="20" viewBox="0 0 22 20" fill="none" xmlns="http://www.w3.org/2000/svg">
<path d="M10.9999 20C9.81805 20 8.64773 19.7672 7.5558 19.3149C6.46387 18.8626 5.47171 18.1997 4.63599 17.364C3.80026 16.5282 3.13732 15.5361 2.68503 14.4442C2.23274 13.3522 1.99995 12.1819 1.99995 11C1.99995 9.8181 2.23274 8.64778 2.68503 7.55585C3.13732 6.46392 3.80026 5.47177 4.63599 4.63604C5.47171 3.80031 6.46387 3.13738 7.5558 2.68509C8.64773 2.23279 9.81805 2 10.9999 2C13.3869 2 15.6761 2.94821 17.3639 4.63604C19.0517 6.32387 19.9999 8.61305 19.9999 11C19.9999 13.387 19.0517 15.6761 17.3639 17.364C15.6761 19.0518 13.3869 20 10.9999 20ZM11.9999 11V6H9.99995V13H14.9999V11H11.9999ZM0.746948 4.282L4.28195 0.747002L5.69695 2.161L2.15995 5.697L0.746948 4.282ZM17.7169 0.747002L21.2529 4.282L19.8389 5.697L16.3029 2.161L17.7179 0.747002H17.7169Z" fill="#CCCCCC"/>
</svg>
