<svg width="38" height="36" viewBox="0 0 38 36" fill="none" xmlns="http://www.w3.org/2000/svg">
<path d="M16.5 16.25V11L25.25 18L16.5 25V19.75H0.75V16.25H16.5ZM3.3015 23.25H7.0185C8.24008 26.2584 10.469 28.7489 13.324 30.2954C16.1789 31.8419 19.4825 32.3485 22.6697 31.7283C25.8569 31.1082 28.7295 29.3999 30.7963 26.8957C32.8631 24.3915 33.9956 21.2469 34 18C34.0018 14.7497 32.8726 11.6 30.8061 9.09114C28.7395 6.58232 25.8645 4.87072 22.6739 4.24992C19.4834 3.62912 16.1763 4.1378 13.3199 5.68871C10.4634 7.23962 8.23557 9.73612 7.0185 12.75H3.3015C5.531 5.65025 12.1635 0.5 20 0.5C29.6652 0.5 37.5 8.33475 37.5 18C37.5 27.6652 29.6652 35.5 20 35.5C12.1635 35.5 5.531 30.3498 3.3015 23.25Z" fill="#888888"/>
</svg>
