<svg width="39" height="36" viewBox="0 0 39 36" fill="none" xmlns="http://www.w3.org/2000/svg">
<path d="M18 35.5C8.33475 35.5 0.5 27.6653 0.5 18C0.5 8.33476 8.33475 0.500005 18 0.500005C20.7171 0.497964 23.3973 1.12961 25.8276 2.34475C28.2579 3.5599 30.3713 5.32506 32 7.50001H27.2575C25.2367 5.71808 22.7446 4.55713 20.0802 4.15646C17.4159 3.75578 14.6926 4.1324 12.2371 5.24113C9.78149 6.34985 7.69801 8.14359 6.23662 10.4071C4.77523 12.6706 3.99802 15.3077 3.99825 18.0019C3.99847 20.6962 4.77612 23.3332 6.23789 25.5964C7.69965 27.8597 9.78343 29.6531 12.2392 30.7614C14.6949 31.8697 17.4183 32.2459 20.0826 31.8448C22.7468 31.4436 25.2387 30.2823 27.2593 28.5H32.0017C30.3729 30.6752 28.2592 32.4405 25.8286 33.6557C23.398 34.8708 20.7174 35.5023 18 35.5ZM30.25 25V19.75H16.25V16.25H30.25V11L39 18L30.25 25Z" fill="#888888"/>
</svg>
